<svg xmlns="http://www.w3.org/2000/svg" viewBox="394 96 1400 600"><g fill="none" stroke="#1E1E1E" stroke-width="3"><path d="M2202 348c0 612.4-495.6 1108-1108 1108S-14 960.4-14 348 481.6-760 1094-760 2202-264.4 2202 348zM1094-749.2C487.5-749.2-3.2-258.5-3.2 348S487.5 1445.2 1094 1445.2 2191.2 954.5 2191.2 348 1700.5-749.2 1094-749.2zM2179.8 348c0 600.5-485.3 1085.8-1085.8 1085.8S8.2 948.5 8.2 348 493.5-737.8 1094-737.8 2179.8-252.5 2179.8 348zM1094-727C500-727 19-246 19 348s481 1075 1075 1075S2169 942 2169 348 1688-727 1094-727zM2158.2 348c0 588.1-476.1 1064.2-1064.2 1064.2S29.8 936.1 29.8 348 505.9-716.2 1094-716.2 2158.2-240.1 2158.2 348zM1094-705.4C511.9-705.4 40.6-234.1 40.6 348c0 582.1 471.2 1053.4 1053.4 1053.4 582.1 0 1053.4-471.2 1053.4-1053.4 0-582.1-471.3-1053.4-1053.4-1053.4zM2136 348c0 576.2-465.8 1042-1042 1042S52 924.2 52 348 517.8-694 1094-694 2136-228.2 2136 348zM1094-683.2C523.8-683.2 62.8-222.2 62.8 348s461 1031.2 1031.2 1031.2S2125.2 918.3 2125.2 348 1664.2-683.2 1094-683.2zM2114.4 348c0 563.7-456.6 1020.4-1020.4 1020.4C530.3 1368.4 73.6 911.7 73.6 348S530.3-672.4 1094-672.4 2114.4-215.7 2114.4 348zM1094-661.5C536.2-661.5 84.5-209.8 84.5 348S536.2 1357.5 1094 1357.5 2103.5 905.8 2103.5 348 1651.8-661.5 1094-661.5zM2092.2 348c0 551.8-446.3 998.2-998.2 998.2S95.8 899.8 95.8 348c0-551.8 446.3-998.2 998.2-998.2s998.2 446.4 998.2 998.2zM1094-639.4c-545.9 0-987.4 441.5-987.4 987.4s441.5 987.4 987.4 987.4 987.4-441.5 987.4-987.4-441.5-987.4-987.4-987.4zM2070.5 348c0 539.9-436.6 976.5-976.5 976.5S117.5 887.9 117.5 348 554.1-628.5 1094-628.5s976.5 436.6 976.5 976.5zM1094-617.2c-533.4 0-965.2 431.7-965.2 965.2s431.7 965.2 965.2 965.2c533.4 0 965.2-431.7 965.2-965.2S1627.4-617.2 1094-617.2zM2048.4 348c0 527.5-426.9 954.4-954.4 954.4S139.6 875.5 139.6 348 566.5-606.4 1094-606.4s954.4 426.9 954.4 954.4zM1094-595.5c-521.5 0-943.5 422-943.5 943.5s422 943.5 943.5 943.5 943.5-422 943.5-943.5-422-943.5-943.5-943.5zM2026.7 348c0 515.6-417.1 932.7-932.7 932.7S161.3 863.6 161.3 348 578.4-584.7 1094-584.7s932.7 417.1 932.7 932.7zM1094-573.4c-509.1 0-921.4 412.3-921.4 921.4 0 509.1 412.3 921.3 921.4 921.3 509.1 0 921.3-412.3 921.3-921.3 0-509.1-412.2-921.4-921.3-921.4zM2004.5 348c0 503.1-407.4 910.5-910.5 910.5S183.5 851.1 183.5 348 590.9-562.5 1094-562.5s910.5 407.4 910.5 910.5zM1094-551.7c-497.2 0-899.7 402.5-899.7 899.7s402.5 899.7 899.7 899.7c497.2 0 899.7-402.5 899.7-899.7S1591.2-551.7 1094-551.7zM1982.3 348c0 491.2-397.1 888.3-888.3 888.3-491.2 0-888.3-397.1-888.3-888.3S602.8-540.3 1094-540.3c491.2 0 888.3 397.1 888.3 888.3zM1094-529.5c-485.3 0-877.5 392.2-877.5 877.5s392.2 877.5 877.5 877.5 877.5-392.2 877.5-877.5-392.2-877.5-877.5-877.5z"/><path d="M1960.7 348c0 478.8-387.9 866.7-866.7 866.7S227.3 826.8 227.3 348c0-478.8 387.9-866.7 866.7-866.7s866.7 387.9 866.7 866.7zM1094-507.9c-472.8 0-855.9 383-855.9 855.9 0 472.8 383 855.9 855.9 855.9 472.8 0 855.9-383 855.9-855.9 0-472.8-383.1-855.9-855.9-855.9zM1938.5 348c0 466.9-377.6 844.5-844.5 844.5S249.5 814.9 249.5 348 627.1-496.5 1094-496.5s844.5 377.6 844.5 844.5zM1094-485.7c-460.9 0-833.7 372.8-833.7 833.7s372.8 833.7 833.7 833.7c460.9 0 833.7-372.8 833.7-833.7S1554.9-485.7 1094-485.7zM1916.9 348c0 455-367.9 822.9-822.9 822.9S271.1 803 271.1 348 639-474.9 1094-474.9 1916.9-107 1916.9 348zM1094-464.1c-448.5 0-812.1 363.6-812.1 812.1s363.6 812.1 812.1 812.1 812.1-363.6 812.1-812.1-363.6-812.1-812.1-812.1zM1894.7 348c0 442.5-358.2 800.7-800.7 800.7-442.6 0-800.7-358.2-800.7-800.7 0-442.6 358.2-800.7 800.7-800.7 442.6 0 800.7 358.1 800.7 800.7zM1094-441.9c-436.6 0-789.9 353.3-789.9 789.9 0 436.6 353.3 789.9 789.9 789.9 436.6 0 789.9-353.3 789.9-789.9 0-436.6-353.3-789.9-789.9-789.9zM1873.1 348c0 430.6-348.4 779.1-779.1 779.1-430.6 0-779.1-348.4-779.1-779.1S663.4-431.1 1094-431.1 1873.1-82.6 1873.1 348zM1094-419.7c-424.7 0-767.7 343-767.7 767.7s343 767.7 767.7 767.7c424.7 0 767.7-343 767.7-767.7s-343-767.7-767.7-767.7zM1850.9 348c0 418.2-338.7 756.9-756.9 756.9S337.1 766.2 337.1 348 675.8-408.9 1094-408.9 1850.9-70.2 1850.9 348zM1094-398.1c-412.3 0-746.1 333.8-746.1 746.1s333.8 746.1 746.1 746.1 746.1-333.8 746.1-746.1-333.8-746.1-746.1-746.1zM1829.2 348c0 406.3-328.9 735.2-735.2 735.2-406.3 0-735.2-328.9-735.2-735.2 0-406.3 328.9-735.2 735.2-735.2 406.3 0 735.2 328.9 735.2 735.2zM1094-375.9c-400.4 0-723.9 323.5-723.9 723.9s323.5 723.9 723.9 723.9 723.9-323.5 723.9-723.9-323.5-723.9-723.9-723.9zM1807.1 348c0 394.4-318.7 713.1-713.1 713.1-394.4 0-713.1-318.7-713.1-713.1S699.6-365.1 1094-365.1c394.4 0 713.1 318.7 713.1 713.1zM1094-354.2c-387.9 0-702.2 314.3-702.2 702.2s314.3 702.2 702.2 702.2c387.9 0 702.2-314.3 702.2-702.2S1481.9-354.2 1094-354.2zM1784.9 348c0 382-308.9 690.9-690.9 690.9S403.1 730 403.1 348 712-342.9 1094-342.9 1784.9-34 1784.9 348zM1094-332.1C718-332.1 413.9-28 413.9 348S718 1028.1 1094 1028.1 1774.1 724 1774.1 348 1470-332.1 1094-332.1zM1763.2 348c0 370.1-299.2 669.2-669.2 669.2-370.1 0-669.2-299.2-669.2-669.2 0-370.1 299.2-669.2 669.2-669.2 370.1 0 669.2 299.1 669.2 669.2zM1094-310.4c-363.6 0-658.4 294.9-658.4 658.4s294.9 658.4 658.4 658.4c363.6 0 658.4-294.9 658.4-658.4S1457.6-310.4 1094-310.4zM1741.1 348c0 357.6-289.4 647.1-647.1 647.1-357.6 0-647.1-289.4-647.1-647.1S736.4-299.1 1094-299.1 1741.1-9.6 1741.1 348zM1094-288.2C742.3-288.2 457.8-3.7 457.8 348S742.3 984.2 1094 984.2c351.7 0 636.2-284.6 636.2-636.2S1445.7-288.2 1094-288.2z"/><path d="M1719.4 348c0 345.7-279.7 625.4-625.4 625.4S468.6 693.7 468.6 348 748.3-277.4 1094-277.4 1719.4 2.3 1719.4 348zM1094-266.6C754.2-266.6 479.4 8.2 479.4 348S754.2 962.6 1094 962.6s614.6-274.8 614.6-614.6-274.8-614.6-614.6-614.6zM1697.2 348c0 333.3-270 603.2-603.2 603.2-333.3 0-603.2-270-603.2-603.2 0-333.3 270-603.2 603.2-603.2 333.3 0 603.2 269.9 603.2 603.2zM1094-244.4c-327.3 0-592.4 265.1-592.4 592.4 0 327.3 265.1 592.4 592.4 592.4 327.3 0 592.4-265.1 592.4-592.4 0-327.3-265.1-592.4-592.4-592.4zM1675.6 348c0 321.4-260.2 581.6-581.6 581.6-321.4 0-581.6-260.2-581.6-581.6S772.6-233.6 1094-233.6c321.4 0 581.6 260.2 581.6 581.6zM1094-222.2c-315.4 0-570.2 254.8-570.2 570.2S778.6 918.2 1094 918.2s570.2-254.8 570.2-570.2-254.8-570.2-570.2-570.2zM1653.4 348c0 309.5-249.9 559.4-559.4 559.4S534.6 657.5 534.6 348 784.5-211.4 1094-211.4 1653.4 38.5 1653.4 348zM1094-200.6C791-200.6 545.4 45 545.4 348S791 896.6 1094 896.6 1642.6 651 1642.6 348 1397-200.6 1094-200.6zM1631.8 348c0 297-240.8 537.8-537.8 537.8-297 0-537.8-240.8-537.8-537.8 0-297 240.8-537.8 537.8-537.8 297 0 537.8 240.8 537.8 537.8zM1094-178.4c-291.1 0-526.4 235.3-526.4 526.4S802.9 874.4 1094 874.4c291.1 0 526.4-235.3 526.4-526.4S1385.1-178.4 1094-178.4zM1609.6 348c0 285.1-230.5 515.6-515.6 515.6S578.4 633.1 578.4 348 808.9-167.6 1094-167.6 1609.6 62.9 1609.6 348zM1094-156.8c-279.2 0-504.8 225.6-504.8 504.8S814.8 852.8 1094 852.8c279.2 0 504.8-225.6 504.8-504.8S1373.2-156.8 1094-156.8zM1587.4 348c0 272.7-220.7 493.4-493.4 493.4S600.6 620.7 600.6 348 821.3-145.4 1094-145.4 1587.4 75.3 1587.4 348zM1094-134.6c-266.7 0-482.6 215.9-482.6 482.6 0 266.7 215.9 482.6 482.6 482.6 266.7 0 482.6-215.9 482.6-482.6 0-266.7-215.9-482.6-482.6-482.6zM1565.8 348c0 260.8-211 471.8-471.8 471.8S622.2 608.8 622.2 348s211-471.8 471.8-471.8 471.8 211 471.8 471.8zM1094-112.9c-254.8 0-460.9 206.1-460.9 460.9S839.2 808.9 1094 808.9c254.8 0 460.9-206.1 460.9-460.9S1348.8-112.9 1094-112.9zM1543.6 348c0 248.9-200.7 449.6-449.6 449.6-248.9 0-449.6-200.7-449.6-449.6S845.1-101.6 1094-101.6c248.9 0 449.6 200.7 449.6 449.6zM1094-90.8c-242.4 0-438.8 196.4-438.8 438.8S851.6 786.8 1094 786.8s438.8-196.4 438.8-438.8S1336.4-90.8 1094-90.8zM1521.9 348c0 236.4-191.5 427.9-427.9 427.9-236.4 0-427.9-191.5-427.9-427.9 0-236.4 191.5-427.9 427.9-427.9 236.4 0 427.9 191.5 427.9 427.9zM1094-69.1c-230.5 0-417.1 186.7-417.1 417.1 0 230.5 186.7 417.1 417.1 417.1 230.5 0 417.1-186.7 417.1-417.1 0-230.5-186.6-417.1-417.1-417.1zM1499.8 348c0 224.5-181.2 405.8-405.8 405.8-224.5 0-405.8-181.2-405.8-405.8S869.5-57.8 1094-57.8s405.8 181.3 405.8 405.8zM1094-46.9C876-46.9 699.1 130 699.1 348S876 742.9 1094 742.9c218 0 394.9-176.9 394.9-394.9S1312-46.9 1094-46.9z"/><path d="M1478.1 348c0 212.1-172 384.1-384.1 384.1-212.1 0-384.1-172-384.1-384.1S881.9-36.1 1094-36.1c212.1 0 384.1 172 384.1 384.1zM1094-24.8c-206.1 0-372.8 166.6-372.8 372.8 0 206.1 166.6 372.8 372.8 372.8s372.8-166.6 372.8-372.8c0-206.1-166.7-372.8-372.8-372.8zM1455.9 348c0 200.2-161.8 361.9-361.9 361.9-200.2 0-361.9-161.8-361.9-361.9 0-200.2 161.8-361.9 361.9-361.9 200.2 0 361.9 161.7 361.9 361.9zM1094-3.1C899.8-3.1 742.9 153.8 742.9 348c0 194.2 156.9 351.1 351.1 351.1 194.2 0 351.1-156.9 351.1-351.1 0-194.2-156.9-351.1-351.1-351.1zM1434.3 348c0 187.7-152.6 340.3-340.3 340.3-187.7 0-340.3-152.6-340.3-340.3S906.3 7.7 1094 7.7c187.7 0 340.3 152.6 340.3 340.3zM1094 19.1c-181.8 0-328.9 147.2-328.9 328.9S912.2 676.9 1094 676.9c181.8 0 328.9-147.2 328.9-328.9S1275.8 19.1 1094 19.1zM1412.1 348c0 175.8-142.3 318.1-318.1 318.1S775.9 523.8 775.9 348 918.2 29.9 1094 29.9s318.1 142.3 318.1 318.1zM1094 40.7c-169.9 0-307.3 137.4-307.3 307.3S924.1 655.3 1094 655.3s307.3-137.4 307.3-307.3S1263.9 40.7 1094 40.7zM1389.9 348c0 163.9-132 295.9-295.9 295.9-163.9 0-295.9-132-295.9-295.9 0-163.9 132-295.9 295.9-295.9 163.9 0 295.9 132 295.9 295.9zM1094 62.9c-157.4 0-285.1 127.7-285.1 285.1 0 157.4 127.7 285.1 285.1 285.1 157.4 0 285.1-127.7 285.1-285.1 0-157.4-127.7-285.1-285.1-285.1zM1368.3 348c0 151.5-122.8 274.3-274.3 274.3S819.7 499.5 819.7 348 942.5 73.7 1094 73.7s274.3 122.8 274.3 274.3zM1094 84.5c-145.5 0-263.5 117.9-263.5 263.5s118 263.5 263.5 263.5 263.5-117.9 263.5-263.5-118-263.5-263.5-263.5zM1346.1 348c0 139.6-112.5 252.1-252.1 252.1S841.9 487.6 841.9 348 954.4 95.9 1094 95.9s252.1 112.5 252.1 252.1zM1094 106.7c-133.6 0-241.3 107.7-241.3 241.3 0 133.6 107.7 241.3 241.3 241.3s241.3-107.7 241.3-241.3c0-133.6-107.7-241.3-241.3-241.3zM1324.5 348c0 127.1-103.3 230.5-230.5 230.5-127.1 0-230.5-103.3-230.5-230.5 0-127.1 103.3-230.5 230.5-230.5 127.1 0 230.5 103.4 230.5 230.5zM1094 128.3c-121.2 0-219.7 98.5-219.7 219.7 0 121.2 98.5 219.7 219.7 219.7 121.2 0 219.7-98.5 219.7-219.7 0-121.2-98.5-219.7-219.7-219.7zM1302.3 348c0 115.2-93.1 208.3-208.3 208.3-115.2 0-208.3-93.1-208.3-208.3s93.1-208.3 208.3-208.3c115.2 0 208.3 93.1 208.3 208.3zM1094 150.5c-109.3 0-197.5 88.2-197.5 197.5s88.2 197.5 197.5 197.5 197.5-88.2 197.5-197.5-88.2-197.5-197.5-197.5zM1280.7 348c0 103.3-83.3 186.6-186.6 186.6S907.4 451.3 907.4 348s83.3-186.7 186.7-186.7c103.2.1 186.6 83.4 186.6 186.7zM1094 172.7c-96.8 0-175.3 78.4-175.3 175.3 0 96.8 78.4 175.3 175.3 175.3 96.8 0 175.3-78.4 175.3-175.3 0-96.8-78.5-175.3-175.3-175.3zM1258.5 348c0 90.9-73.6 164.5-164.5 164.5S929.5 438.9 929.5 348s73.6-164.5 164.5-164.5 164.5 73.6 164.5 164.5zM1094 194.4c-84.9 0-153.6 68.7-153.6 153.6 0 84.9 68.7 153.6 153.6 153.6 84.9 0 153.6-68.7 153.6-153.6 0-84.9-68.7-153.6-153.6-153.6z"/><path d="M1236.8 348c0 79-63.8 142.8-142.8 142.8-79 0-142.8-63.8-142.8-142.8 0-79 63.8-142.8 142.8-142.8 79 0 142.8 63.8 142.8 142.8zM1094 216.5c-72.5 0-131.5 59-131.5 131.5s59 131.5 131.5 131.5 131.5-59 131.5-131.5-59-131.5-131.5-131.5zM1214.6 348c0 66.5-54.1 120.6-120.6 120.6S973.4 414.5 973.4 348s54.1-120.6 120.6-120.6 120.6 54.1 120.6 120.6zM1094 238.2c-60.6 0-109.8 49.2-109.8 109.8 0 60.6 49.2 109.8 109.8 109.8 60.6 0 109.8-49.2 109.8-109.8 0-60.6-49.2-109.8-109.8-109.8zm98.5 109.8c0 54.6-43.8 98.5-98.5 98.5-54.6 0-98.5-43.8-98.5-98.5 0-54.6 43.8-98.5 98.5-98.5 54.6 0 98.5 43.9 98.5 98.5zm-98.5-87.6c-48.7 0-87.6 39-87.6 87.6 0 48.7 39 87.6 87.6 87.6 48.7 0 87.6-39 87.6-87.6 0-48.7-38.9-87.6-87.6-87.6zm76.8 87.6c0 42.2-34.6 76.8-76.8 76.8-42.2 0-76.8-34.6-76.8-76.8 0-42.2 34.6-76.8 76.8-76.8 42.2 0 76.8 34.6 76.8 76.8zm-76.8-66c-36.2 0-66 29.8-66 66s29.8 66 66 66 66-29.8 66-66-29.8-66-66-66zm54.6 66c0 30.3-24.3 54.6-54.6 54.6s-54.6-24.3-54.6-54.6 24.3-54.6 54.6-54.6 54.6 24.3 54.6 54.6zm-54.6-43.8c-24.3 0-43.8 19.5-43.8 43.8 0 24.3 19.5 43.8 43.8 43.8 24.3 0 43.8-19.5 43.8-43.8 0-24.3-19.5-43.8-43.8-43.8zm33 43.8c0 18.4-14.6 33-33 33s-33-14.6-33-33 14.6-33 33-33 33 14.6 33 33zm-33-22.2c-11.9 0-22.2 10.3-22.2 22.2 0 11.9 10.3 22.2 22.2 22.2 11.9 0 22.2-10.3 22.2-22.2 0-11.9-10.3-22.2-22.2-22.2zm10.8 22.2c0 6-4.9 10.8-10.8 10.8-6 0-10.8-4.9-10.8-10.8 0-6 4.9-10.8 10.8-10.8 6 0 10.8 4.8 10.8 10.8z"/></g></svg>